# xmcd
#
# Track frame offsets:
#       151
#       14136
#       32397
#       50660
#       64047
#       75484
#       93521
#       113582
#       127869
#       149804
#
# Disc length: 2278 seconds
#
# Revision: 0
# Processed by: cddbd v1.4PL0 Copyright (c) Steve Scherf et al.
# Submitted via: CD-DA_X-Tractor v0.21
#
DISCID=8208e40a
DTITLE=Joe Berry - The Dark Side Of The Moon  KMA
DYEAR=1900
DGENRE=
TTITLE0=Just By Chance
TTITLE1=Don't Wake Me
TTITLE2=I'll Spend All My Time
TTITLE3=Your Memory Keeps On Fanning The Flame
TTITLE4=Like A Bad Penny
TTITLE5=You Don't Love Me Like You Use Too
TTITLE6=Way Ahead Of You
TTITLE7=I Must Be Talking To Myself
TTITLE8=The Dark Side Of The Moon
TTITLE9=GOD BLESS America Again
EXTD=
EXTT0=
EXTT1=
EXTT2=
EXTT3=
EXTT4=
EXTT5=
EXTT6=
EXTT7=
EXTT8=
EXTT9=
PLAYORDER=
